Coordinates
version=1
nRows=18
nColumns=22
inDegrees=yes

Units are S.I. units (second, meters, Newtons, ...)
If the header above contains a line with 'inDegrees', this indicates whether rotational values are in degrees (yes) or radians (no).

endheader
time	pelvis_tilt	pelvis_list	pelvis_rotation	pelvis_tx	pelvis_ty	pelvis_tz	hip_flexion_r	hip_adduction_r	hip_rotation_r	knee_angle_r	ankle_angle_r	subtalar_angle_r	hip_flexion_l	hip_adduction_l	hip_rotation_l	knee_angle_l	ankle_angle_l	subtalar_angle_l	lumbar_extension	lumbar_bending	lumbar_rotation
      5.30000000	     -0.19777867	      2.58765516	    -31.47278572	      0.63402164	      0.89034593	      0.36403640	     -9.15914862	     -5.33115215	      0.98656962	    -27.85534831	      9.76174176	      2.66268321	     20.16405868	      0.56078568	    -11.80547712	    -22.09636077	      5.55955792	     -1.36734014	     -5.79287313	     -3.33862937	      7.73967221
      5.31000000	     -0.29816601	      2.52421332	    -31.63148760	      0.63966543	      0.89104228	      0.36438278	     -8.52477786	     -5.40638019	      1.62860223	    -29.17778899	      8.81598806	      3.00408687	     19.84795341	      0.58472598	    -12.00899110	    -22.08045959	      5.68499749	     -1.33851196	     -5.68761579	     -3.12242834	      7.74184624
      5.32000000	     -0.44736252	      2.45051871	    -31.75084234	      0.64517945	      0.89163455	      0.36467012	     -7.78650977	     -5.43793246	      2.14961574	    -30.59574137	      7.86657512	      3.58332533	     19.58671808	      0.58601584	    -12.12377050	    -22.06761657	      5.85798739	     -1.30398955	     -5.54841594	     -2.87432016	      7.73633813
      5.33000000	     -0.55925262	      2.37186512	    -31.87253776	      0.65057566	      0.89225758	      0.36496276	     -7.06729886	     -5.46739134	      2.67341908	    -32.01673451	      6.90937405	      3.97899053	     19.29252111	      0.59408801	    -12.28574401	    -22.05272938	      6.01734683	     -1.30695297	     -5.45716282	     -2.64869386	      7.67244587
      5.34000000	     -0.68723320	      2.28322541	    -31.93933376	      0.65587553	      0.89281261	      0.36518034	     -6.30581938	     -5.48146509	      3.02465723	    -33.48216461	      5.96620037	      4.58147058	     19.01623836	      0.60797573	    -12.34503172	    -22.02766008	      6.21910350	     -1.36624970	     -5.36322885	     -2.41221839	      7.57967742
      5.35000000	     -0.78075628	      2.18544528	    -32.01881043	      0.66102973	      0.89338291	      0.36542579	     -5.55534519	     -5.50307704	      3.33352922	    -34.95737601	      5.08595259	      4.94379031	     18.69995915	      0.62100670	    -12.46064287	    -21.98552991	      6.40846714	     -1.47225123	     -5.31591103	     -2.20013067	      7.49399895
      5.36000000	     -0.84889364	      2.08441764	    -32.07529630	      0.66607708	      0.89393981	      0.36564124	     -4.81553907	     -5.54341934	      3.52749593	    -36.42946161	      4.28021946	      5.26677313	     18.35876386	      0.65344061	    -12.56103688	    -21.92481836	      6.59545963	     -1.63127423	     -5.30153777	     -2.00874710	      7.38026861
      5.37000000	     -0.87443281	      1.99694410	    -32.13136378	      0.67101110	      0.89448895	      0.36585701	     -4.09131709	     -5.63444405	      3.63016298	    -37.89089370	      3.61082318	      5.43247620	     17.97441670	      0.72465778	    -12.67519743	    -21.82807365	      6.75329129	     -1.77595864	     -5.32323507	     -1.86620552	      7.25771552
      5.38000000	     -0.84281405	      1.86787006	    -32.12414019	      0.67592648	      0.89509381	      0.36599146	     -3.47054368	     -5.75342020	      3.52377485	    -39.27093705	      3.03934824	      5.47680913	     17.51287572	      0.81829391	    -12.70431608	    -21.70919287	      6.94941677	     -1.86217726	     -5.42949013	     -1.71720870	      7.08071144
      5.39000000	     -0.83515615	      1.83218212	    -32.14096177	      0.68064053	      0.89550288	      0.36611079	     -2.72010557	     -5.96780316	      3.37463448	    -40.68246034	      2.75941409	      5.62962540	     17.14668613	      0.97497054	    -12.75063113	    -21.60541809	      7.08472774	     -2.13972517	     -5.45768026	     -1.65832460	      6.91234873
      5.40000000	     -0.76188875	      1.71980504	    -32.11690894	      0.68534925	      0.89602354	      0.36621017	     -2.12041399	     -6.19434586	      3.04401381	    -41.94580834	      2.55792719	      5.58461705	     16.67894963	      1.10830114	    -12.76838796	    -21.50073326	      7.28991313	     -2.24485413	     -5.59335544	     -1.56201829	      6.71928093
      5.41000000	     -0.66802644	      1.69768063	    -32.09479476	      0.68991574	      0.89642647	      0.36625562	     -1.46917590	     -6.55394455	      2.64267227	    -43.16765477	      2.74861505	      5.33068847	     16.24679316	      1.35092289	    -12.71382993	    -21.37398679	      7.37685690	     -2.51847770	     -5.69768648	     -1.57400859	      6.50855757
      5.42000000	     -0.54578849	      1.63412670	    -32.06032314	      0.69442108	      0.89687174	      0.36631661	     -0.90150420	     -6.93363757	      2.12693898	    -44.23483590	      3.07845517	      4.58819160	     15.78547090	      1.56149999	    -12.68675351	    -21.28359057	      7.52169416	     -2.80668378	     -5.85015043	     -1.56431361	      6.29746645
      5.43000000	     -0.41462087	      1.57625231	    -32.02596359	      0.69881287	      0.89729997	      0.36637761	     -0.36160018	     -7.34273726	      1.58745681	    -45.15997870	      3.62319718	      3.72329415	     15.32306553	      1.78540121	    -12.61338110	    -21.18684059	      7.66995557	     -2.93409507	     -6.00754335	     -1.56820166	      6.08861732
      5.44000000	     -0.29002869	      1.49807198	    -32.00303148	      0.70304723	      0.89774034	      0.36648896	      0.14546098	     -7.72056472	      1.08420877	    -45.91995204	      4.32161178	      2.62120491	     14.86861328	      1.97678441	    -12.52268981	    -21.10534398	      7.84092267	     -3.04903337	     -6.17283836	     -1.55787745	      5.87451320
      5.45000000	     -0.18421601	      1.40618064	    -31.98736153	      0.70714065	      0.89818865	      0.36665335	      0.62800568	     -8.06677368	      0.59248242	    -46.49415355	      5.08929079	      1.48028849	     14.43639112	      2.13477284	    -12.42328849	    -21.03814164	      7.98490188	     -3.14167033	     -6.32458422	     -1.53484788	      5.70152118
      5.46000000	     -0.11141916	      1.28104802	    -31.99041066	      0.71104227	      0.89865658	      0.36687973	      1.09223670	     -8.31184151	      0.21588202	    -46.88073426	      5.88500475	      0.34274973	     14.02920724	      2.22984937	    -12.32092620	    -20.98414535	      8.16045994	     -3.21803751	     -6.47108001	     -1.46806366	      5.54078406
      5.47000000	     -0.07423200	      1.12642091	    -32.01482658	      0.71474142	      0.89914074	      0.36720097	      1.54309261	     -8.45294368	     -0.06001888	    -47.07463116	      6.64605828	     -0.67598793	     13.65456528	      2.25718155	    -12.23481573	    -20.95218128	      8.35540885	     -3.27852782	     -6.60504912	     -1.36827428	      5.40159795
